<?xml version="1.0" encoding="UTF-8" standalone="no"?>
<!-- Created with Inkscape (http://www.inkscape.org/) -->

<svg
   width="53.1968mm"
   height="28.97802mm"
   viewBox="0 0 53.1968 28.97802"
   version="1.1"
   id="svg4903"
   inkscape:version="1.1 (c68e22c387, 2021-05-23)"
   sodipodi:docname="logo-hrv-nuevo.svg"
   xmlns:inkscape="http://www.inkscape.org/namespaces/inkscape"
   xmlns:sodipodi="http://sodipodi.sourceforge.net/DTD/sodipodi-0.dtd"
   xmlns="http://www.w3.org/2000/svg"
   xmlns:svg="http://www.w3.org/2000/svg">
  <sodipodi:namedview
     id="namedview4905"
     pagecolor="#ffffff"
     bordercolor="#666666"
     borderopacity="1.0"
     inkscape:pageshadow="2"
     inkscape:pageopacity="0.0"
     inkscape:pagecheckerboard="0"
     inkscape:document-units="mm"
     showgrid="false"
     inkscape:zoom="0.94786756"
     inkscape:cx="156.66746"
     inkscape:cy="0.52749985"
     inkscape:window-width="1366"
     inkscape:window-height="704"
     inkscape:window-x="0"
     inkscape:window-y="27"
     inkscape:window-maximized="1"
     inkscape:current-layer="layer1" />
  <defs
     id="defs4900" />
  <g
     inkscape:label="Capa 1"
     inkscape:groupmode="layer"
     id="layer1"
     transform="translate(-121.90158,-176.43956)">
    <path
       d="m 138.12935,199.79026 z m 0.75354,-1.96427 c 0.11853,0 0.22013,0.0179 0.3048,0.0536 0.0865,0.0339 0.17027,0.0875 0.25117,0.16087 l -0.0988,0.10724 c -0.0734,-0.0621 -0.14487,-0.10724 -0.21448,-0.13546 -0.0696,-0.0282 -0.14864,-0.0423 -0.23707,-0.0423 -0.12042,0 -0.21731,0.0301 -0.29069,0.0903 -0.0734,0.0583 -0.11007,0.13735 -0.11007,0.23707 0,0.0677 0.0132,0.12418 0.0395,0.16933 0.0282,0.0433 0.0743,0.0828 0.13829,0.11854 0.064,0.0339 0.15522,0.0687 0.27376,0.10442 0.12794,0.0395 0.23142,0.0818 0.31044,0.127 0.079,0.0452 0.14017,0.10348 0.18345,0.17498 0.0433,0.0715 0.0649,0.1618 0.0649,0.27093 0,0.10913 -0.0263,0.20602 -0.079,0.29069 -0.0527,0.0847 -0.12794,0.15052 -0.22578,0.19756 -0.096,0.047 -0.2079,0.0705 -0.33585,0.0705 -0.24083,0 -0.44685,-0.0809 -0.61806,-0.24271 l 0.096,-0.10724 c 0.079,0.0677 0.15898,0.11947 0.23989,0.15522 0.0809,0.0339 0.17403,0.0508 0.2794,0.0508 0.13923,0 0.25212,-0.0367 0.33866,-0.11007 0.0884,-0.0734 0.13265,-0.1731 0.13265,-0.29915 0,-0.079 -0.015,-0.14394 -0.0451,-0.19474 -0.0282,-0.0508 -0.0753,-0.0941 -0.14111,-0.12982 -0.064,-0.0376 -0.15523,-0.0753 -0.27376,-0.11289 -0.19755,-0.0602 -0.33867,-0.12982 -0.42333,-0.20884 -0.0847,-0.079 -0.127,-0.18627 -0.127,-0.32174 0,-0.0903 0.0235,-0.17121 0.0706,-0.24271 0.0489,-0.0734 0.11571,-0.12982 0.20038,-0.16933 0.0866,-0.0414 0.18532,-0.0621 0.29633,-0.0621 z m 0.76782,1.96427 z m 0.97366,-1.96427 c 0.15805,0 0.29634,0.0386 0.41487,0.11571 0.11853,0.0753 0.21073,0.18815 0.27658,0.33867 0.0659,0.15052 0.0988,0.33208 0.0988,0.54469 0,0.20884 -0.0329,0.38852 -0.0988,0.53904 -0.064,0.14864 -0.15522,0.26247 -0.27376,0.34149 -0.11853,0.0771 -0.25776,0.11571 -0.41769,0.11571 -0.15616,0 -0.29351,-0.0386 -0.41204,-0.11571 -0.11853,-0.0771 -0.21073,-0.19003 -0.27658,-0.33867 -0.0659,-0.14863 -0.0988,-0.32832 -0.0988,-0.53904 0,-0.20885 0.0329,-0.38853 0.0988,-0.53905 0.0658,-0.15051 0.15805,-0.26528 0.27658,-0.34431 0.12041,-0.079 0.25776,-0.11853 0.41204,-0.11853 z m 0,0.14393 c -0.18814,0 -0.33678,0.0724 -0.44591,0.21731 -0.10912,0.143 -0.16369,0.35655 -0.16369,0.64065 0,0.28034 0.0546,0.49201 0.16369,0.635 0.11101,0.14299 0.25965,0.21449 0.44591,0.21449 0.1938,0 0.34432,-0.0706 0.45156,-0.21167 0.10724,-0.14299 0.16087,-0.35654 0.16087,-0.64064 0,-0.28599 -0.0546,-0.49954 -0.16369,-0.64065 -0.10725,-0.14299 -0.25682,-0.21449 -0.44874,-0.21449 z m 0.97764,1.82034 z m 0.31327,0 v -1.93323 h 0.9652 l -0.0198,0.14112 h -0.77611 v 0.75353 h 0.66887 v 0.14111 h -0.66887 v 0.89747 z m 1.04547,0 z m 1.36878,-1.93323 -0.0198,0.14958 h -0.56727 v 1.78365 H 143.576 v -1.78365 h -0.57291 v -0.14958 z m 0.0286,1.93323 z m 2.19851,-1.93323 -0.42334,1.93323 h -0.21166 l -0.42334,-1.74414 -0.42333,1.74414 h -0.20602 l -0.42616,-1.93323 h 0.17216 l 0.36689,1.77518 0.42333,-1.77518 h 0.18909 l 0.4318,1.77518 0.36971,-1.77518 z m 0.0863,1.93323 z m 1.36878,0 -0.16933,-0.52776 h -0.8128 l -0.16933,0.52776 h -0.17216 l 0.64629,-1.93323 h 0.21167 l 0.64346,1.93323 z m -0.93415,-0.67169 h 0.71966 l -0.35842,-1.12325 z m 1.16114,0.67169 z m 0.86925,-0.86643 h -0.38665 v 0.86643 h -0.16933 v -1.93323 h 0.46849 c 0.45908,0 0.68862,0.17498 0.68862,0.52494 0,0.13923 -0.0367,0.25023 -0.11007,0.33302 -0.0734,0.0828 -0.18062,0.14205 -0.32173,0.1778 l 0.53058,0.89747 h -0.20038 z m -0.0649,-0.13828 c 0.32361,0 0.48542,-0.13453 0.48542,-0.40358 0,-0.13171 -0.0404,-0.2286 -0.12136,-0.29069 -0.0809,-0.064 -0.21167,-0.096 -0.39229,-0.096 h -0.29351 v 0.79023 z m 0.86033,1.00471 z m 1.2954,-1.93323 -0.0198,0.14112 h -0.79305 v 0.71966 h 0.6858 v 0.14111 h -0.6858 v 0.79023 h 0.83256 v 0.14111 h -1.00189 v -1.93323 z m 0.93702,1.93323 z m 0.31327,0 v -1.93323 h 0.9652 l -0.0198,0.14112 h -0.77611 v 0.75353 h 0.66887 v 0.14111 h -0.66887 v 0.89747 z m 1.00138,0 z m 0.97367,-1.96427 c 0.15804,0 0.29633,0.0386 0.41486,0.11571 0.11854,0.0753 0.21073,0.18815 0.27658,0.33867 0.0659,0.15052 0.0988,0.33208 0.0988,0.54469 0,0.20884 -0.0329,0.38852 -0.0988,0.53904 -0.064,0.14864 -0.15522,0.26247 -0.27375,0.34149 -0.11854,0.0771 -0.25777,0.11571 -0.41769,0.11571 -0.15617,0 -0.29351,-0.0386 -0.41205,-0.11571 -0.11853,-0.0771 -0.21072,-0.19003 -0.27657,-0.33867 -0.0659,-0.14863 -0.0988,-0.32832 -0.0988,-0.53904 0,-0.20885 0.0329,-0.38853 0.0988,-0.53905 0.0658,-0.15051 0.15804,-0.26528 0.27657,-0.34431 0.12042,-0.079 0.25777,-0.11853 0.41205,-0.11853 z m 0,0.14393 c -0.18815,0 -0.33679,0.0724 -0.44591,0.21731 -0.10913,0.143 -0.16369,0.35655 -0.16369,0.64065 0,0.28034 0.0546,0.49201 0.16369,0.635 0.111,0.14299 0.25964,0.21449 0.44591,0.21449 0.19379,0 0.34431,-0.0706 0.45155,-0.21167 0.10725,-0.14299 0.16087,-0.35654 0.16087,-0.64064 0,-0.28599 -0.0546,-0.49954 -0.16369,-0.64065 -0.10724,-0.14299 -0.25682,-0.21449 -0.44873,-0.21449 z m 0.97763,1.82034 z m 0.86925,-0.86643 h -0.38665 v 0.86643 h -0.16933 v -1.93323 h 0.46849 c 0.45908,0 0.68862,0.17498 0.68862,0.52494 0,0.13923 -0.0367,0.25023 -0.11007,0.33302 -0.0734,0.0828 -0.18062,0.14205 -0.32173,0.1778 l 0.53058,0.89747 h -0.20038 z m -0.0649,-0.13828 c 0.32361,0 0.48542,-0.13453 0.48542,-0.40358 0,-0.13171 -0.0404,-0.2286 -0.12136,-0.29069 -0.0809,-0.064 -0.21166,-0.096 -0.39229,-0.096 h -0.29351 v 0.79023 z m 1.64857,1.00471 z m 1.36878,-1.93323 -0.0198,0.14958 h -0.56726 v 1.78365 h -0.16651 v -1.78365 h -0.57291 v -0.14958 z m 0.0286,1.93323 z m 1.40829,0 v -0.94545 h -0.92569 v 0.94545 h -0.16933 v -1.93323 h 0.16933 v 0.84385 h 0.92569 v -0.84385 h 0.16933 v 1.93323 z m 0.48238,0 z m 1.2954,-1.93323 -0.0198,0.14112 h -0.79305 v 0.71966 h 0.6858 v 0.14111 h -0.6858 v 0.79023 h 0.83256 v 0.14111 h -1.00189 v -1.93323 z m 0.93702,1.93323 z m 1.36878,0 -0.16933,-0.52776 h -0.8128 l -0.16934,0.52776 h -0.17215 l 0.64629,-1.93323 h 0.21166 l 0.64347,1.93323 z m -0.93415,-0.67169 h 0.71966 l -0.35842,-1.12325 z m 1.16114,0.67169 z m 1.58609,0 h -0.22296 l -0.91157,-1.74696 c 0.0151,0.23519 0.0226,0.4572 0.0226,0.66605 v 1.08091 h -0.16087 v -1.93323 h 0.21731 l 0.91722,1.74696 c -0.0151,-0.21825 -0.0226,-0.40922 -0.0226,-0.57291 v -1.17405 h 0.16087 z m 0.31285,0 z m 1.36877,0 -0.16933,-0.52776 h -0.8128 l -0.16933,0.52776 h -0.17216 l 0.64629,-1.93323 h 0.21167 l 0.64347,1.93323 z m -0.93415,-0.67169 h 0.71967 l -0.35843,-1.12325 z m 1.16114,0.67169 z m 0.4826,-1.93323 v 1.78083 h 0.80716 l -0.0226,0.1524 h -0.95391 v -1.93323 h 0.16933 z m 0.60881,1.93323 z m 1.43651,-1.93323 -0.61242,1.17687 v 0.75636 h -0.16933 v -0.75354 l -0.61807,-1.17969 h 0.18909 l 0.51929,1.02729 0.51082,-1.02729 z m -0.0144,1.93323 z m 0.75354,-1.96427 c 0.11853,0 0.22013,0.0179 0.3048,0.0536 0.0865,0.0339 0.17027,0.0875 0.25117,0.16087 l -0.0988,0.10724 c -0.0734,-0.0621 -0.14487,-0.10724 -0.21449,-0.13546 -0.0696,-0.0282 -0.14864,-0.0423 -0.23706,-0.0423 -0.12042,0 -0.21731,0.0301 -0.29069,0.0903 -0.0734,0.0583 -0.11007,0.13735 -0.11007,0.23707 0,0.0677 0.0132,0.12418 0.0395,0.16933 0.0282,0.0433 0.0743,0.0828 0.13829,0.11854 0.064,0.0339 0.15522,0.0687 0.27375,0.10442 0.12794,0.0395 0.23142,0.0818 0.31045,0.127 0.079,0.0452 0.14017,0.10348 0.18344,0.17498 0.0433,0.0715 0.0649,0.1618 0.0649,0.27093 0,0.10913 -0.0264,0.20602 -0.079,0.29069 -0.0527,0.0847 -0.12794,0.15052 -0.22577,0.19756 -0.096,0.047 -0.20791,0.0705 -0.33585,0.0705 -0.24083,0 -0.44685,-0.0809 -0.61807,-0.24271 l 0.096,-0.10724 c 0.079,0.0677 0.15898,0.11947 0.23989,0.15522 0.0809,0.0339 0.17404,0.0508 0.2794,0.0508 0.13923,0 0.25212,-0.0367 0.33867,-0.11007 0.0884,-0.0734 0.13264,-0.1731 0.13264,-0.29915 0,-0.079 -0.0151,-0.14394 -0.0451,-0.19474 -0.0282,-0.0508 -0.0753,-0.0941 -0.14111,-0.12982 -0.064,-0.0376 -0.15522,-0.0753 -0.27376,-0.11289 -0.19755,-0.0602 -0.33866,-0.12982 -0.42333,-0.20884 -0.0847,-0.079 -0.127,-0.18627 -0.127,-0.32174 0,-0.0903 0.0235,-0.17121 0.0705,-0.24271 0.0489,-0.0734 0.11572,-0.12982 0.20038,-0.16933 0.0866,-0.0414 0.18533,-0.0621 0.29634,-0.0621 z m 0.76782,1.96427 z m 0.48259,-1.93323 v 1.93323 h -0.16933 v -1.93323 z m 0.31391,1.93323 z m 0.75354,-1.96427 c 0.11853,0 0.22013,0.0179 0.3048,0.0536 0.0865,0.0339 0.17027,0.0875 0.25117,0.16087 l -0.0988,0.10724 c -0.0734,-0.0621 -0.14487,-0.10724 -0.21449,-0.13546 -0.0696,-0.0282 -0.14863,-0.0423 -0.23706,-0.0423 -0.12041,0 -0.21731,0.0301 -0.29069,0.0903 -0.0734,0.0583 -0.11007,0.13735 -0.11007,0.23707 0,0.0677 0.0132,0.12418 0.0395,0.16933 0.0282,0.0433 0.0743,0.0828 0.13829,0.11854 0.064,0.0339 0.15522,0.0687 0.27376,0.10442 0.12794,0.0395 0.23142,0.0818 0.31044,0.127 0.079,0.0452 0.14017,0.10348 0.18345,0.17498 0.0433,0.0715 0.0649,0.1618 0.0649,0.27093 0,0.10913 -0.0264,0.20602 -0.079,0.29069 -0.0527,0.0847 -0.12794,0.15052 -0.22578,0.19756 -0.096,0.047 -0.2079,0.0705 -0.33585,0.0705 -0.24083,0 -0.44685,-0.0809 -0.61806,-0.24271 l 0.096,-0.10724 c 0.079,0.0677 0.15898,0.11947 0.23989,0.15522 0.0809,0.0339 0.17403,0.0508 0.2794,0.0508 0.13923,0 0.25212,-0.0367 0.33866,-0.11007 0.0884,-0.0734 0.13265,-0.1731 0.13265,-0.29915 0,-0.079 -0.0151,-0.14394 -0.0452,-0.19474 -0.0282,-0.0508 -0.0753,-0.0941 -0.14111,-0.12982 -0.064,-0.0376 -0.15523,-0.0753 -0.27376,-0.11289 -0.19755,-0.0602 -0.33867,-0.12982 -0.42333,-0.20884 -0.0847,-0.079 -0.127,-0.18627 -0.127,-0.32174 0,-0.0903 0.0235,-0.17121 0.0706,-0.24271 0.0489,-0.0734 0.11571,-0.12982 0.20037,-0.16933 0.0865,-0.0414 0.18533,-0.0621 0.29634,-0.0621 z m -32.74056,5.49204 z m 0.97367,-1.96426 c 0.15804,0 0.29633,0.0386 0.41486,0.11571 0.11854,0.0753 0.21073,0.18815 0.27658,0.33867 0.0658,0.15051 0.0988,0.33208 0.0988,0.54468 0,0.20885 -0.0329,0.38853 -0.0988,0.53905 -0.064,0.14864 -0.15522,0.26247 -0.27375,0.34149 -0.11854,0.0771 -0.25777,0.11571 -0.41769,0.11571 -0.15617,0 -0.29351,-0.0386 -0.41205,-0.11571 -0.11853,-0.0771 -0.21072,-0.19003 -0.27658,-0.33867 -0.0658,-0.14864 -0.0988,-0.32832 -0.0988,-0.53904 0,-0.20885 0.0329,-0.38853 0.0988,-0.53905 0.0659,-0.15052 0.15805,-0.26529 0.27658,-0.34431 0.12042,-0.079 0.25777,-0.11853 0.41205,-0.11853 z m 0,0.14393 c -0.18815,0 -0.33679,0.0724 -0.44591,0.21731 -0.10913,0.14299 -0.16369,0.35654 -0.16369,0.64065 0,0.28034 0.0546,0.492 0.16369,0.635 0.111,0.14299 0.25964,0.21449 0.44591,0.21449 0.19379,0 0.34431,-0.0706 0.45155,-0.21167 0.10725,-0.14299 0.16087,-0.35654 0.16087,-0.64065 0,-0.28598 -0.0546,-0.49953 -0.16369,-0.64064 -0.10724,-0.14299 -0.25682,-0.21449 -0.44873,-0.21449 z m 0.97763,1.82033 z m 0.31327,0 v -1.93322 h 0.9652 l -0.0198,0.14111 h -0.77611 v 0.75354 h 0.66887 v 0.14111 h -0.66887 v 0.89746 z m 2.62195,0 z m 1.36878,-1.93322 -0.0197,0.14958 h -0.56727 v 1.78364 h -0.16651 v -1.78364 h -0.57291 v -0.14958 z m 0.0286,1.93322 z m 1.40829,0 v -0.94544 h -0.9257 v 0.94544 h -0.16933 v -1.93322 h 0.16933 v 0.84385 h 0.92569 v -0.84385 h 0.16934 v 1.93322 z m 0.48237,0 z m 1.2954,-1.93322 -0.0198,0.14111 h -0.79305 v 0.71967 h 0.6858 v 0.14111 h -0.6858 v 0.79022 h 0.83256 v 0.14111 h -1.00189 v -1.93322 z m 0.93703,1.93322 z m 1.49577,-1.93322 -0.62935,1.93322 h -0.18909 l -0.63218,-1.93322 h 0.18344 l 0.54469,1.75825 0.54751,-1.75825 z m 0.0118,1.93322 z m 1.36878,0 -0.16933,-0.52775 h -0.81281 l -0.16933,0.52775 h -0.17216 l 0.64629,-1.93322 h 0.21167 l 0.64347,1.93322 z m -0.93416,-0.67168 h 0.71967 l -0.35842,-1.12325 z m 1.16116,0.67168 z m 0.86925,-0.86642 h -0.38665 v 0.86642 h -0.16933 v -1.93322 h 0.46849 c 0.45908,0 0.68862,0.17498 0.68862,0.52494 0,0.13923 -0.0367,0.25023 -0.11007,0.33302 -0.0734,0.0828 -0.18062,0.14205 -0.32173,0.1778 l 0.53058,0.89746 h -0.20038 z m -0.0649,-0.13829 c 0.32362,0 0.48543,-0.13452 0.48543,-0.40357 0,-0.13171 -0.0405,-0.2286 -0.12136,-0.29069 -0.0809,-0.064 -0.21167,-0.096 -0.39229,-0.096 h -0.29351 v 0.79022 z m 0.86034,1.00471 z m 0.4826,-1.93322 v 1.93322 h -0.16933 v -1.93322 z m 0.31391,1.93322 z m 1.36877,0 -0.16933,-0.52775 h -0.8128 l -0.16933,0.52775 h -0.17216 l 0.64629,-1.93322 h 0.21167 l 0.64347,1.93322 z m -0.93415,-0.67168 h 0.71967 l -0.35843,-1.12325 z m 1.16115,0.67168 z m 1.08937,-1.02446 c 0.13171,0.0151 0.23895,0.0621 0.32174,0.14111 0.0828,0.0771 0.12417,0.19285 0.12417,0.34713 0,0.18062 -0.0611,0.31515 -0.18344,0.40358 -0.1223,0.0884 -0.29257,0.13264 -0.51082,0.13264 h -0.52776 v -1.93322 h 0.4318 c 0.2239,0 0.39606,0.0404 0.51647,0.12136 0.1223,0.0809 0.18344,0.20132 0.18344,0.36124 0,0.11854 -0.0329,0.21449 -0.0988,0.28787 -0.064,0.0734 -0.14958,0.11947 -0.25683,0.13829 z m -0.60678,-0.76765 v 0.70838 h 0.38947 c 0.12042,0 0.21731,-0.031 0.29069,-0.0931 0.0734,-0.064 0.11007,-0.15146 0.11007,-0.26247 0,-0.12606 -0.0433,-0.21637 -0.12982,-0.27093 -0.0847,-0.0546 -0.21167,-0.0818 -0.381,-0.0818 z m 0.35843,1.651 c 0.34619,0 0.51929,-0.1317 0.51929,-0.39511 0,-0.13923 -0.0433,-0.24271 -0.12983,-0.31044 -0.0847,-0.0677 -0.19755,-0.1016 -0.33866,-0.1016 h -0.40923 v 0.80715 z m 0.84569,0.14111 z m 0.4826,-1.93322 v 1.93322 h -0.16933 v -1.93322 z m 0.31391,1.93322 z m 0.4826,-1.93322 v 1.78082 h 0.80716 l -0.0226,0.1524 h -0.95391 v -1.93322 h 0.16933 z m 0.86237,1.93322 z m 0.4826,-1.93322 v 1.93322 h -0.16934 v -1.93322 z m 0.3139,1.93322 z m 1.36878,-1.93322 -0.0198,0.14958 h -0.56727 v 1.78364 h -0.16651 v -1.78364 h -0.57291 v -0.14958 z m 0.0286,1.93322 z m 1.43651,-1.93322 -0.61242,1.17687 v 0.75635 h -0.16933 v -0.75353 l -0.61807,-1.17969 h 0.18909 l 0.51929,1.02729 0.51082,-1.02729 z m 0.82898,1.93322 z m 0.97367,-1.96426 c 0.15805,0 0.29633,0.0386 0.41487,0.11571 0.11853,0.0753 0.21072,0.18815 0.27658,0.33867 0.0658,0.15051 0.0988,0.33208 0.0988,0.54468 0,0.20885 -0.0329,0.38853 -0.0988,0.53905 -0.064,0.14864 -0.15523,0.26247 -0.27376,0.34149 -0.11853,0.0771 -0.25776,0.11571 -0.41769,0.11571 -0.15616,0 -0.29351,-0.0386 -0.41204,-0.11571 -0.11854,-0.0771 -0.21073,-0.19003 -0.27658,-0.33867 -0.0658,-0.14864 -0.0988,-0.32832 -0.0988,-0.53904 0,-0.20885 0.0329,-0.38853 0.0988,-0.53905 0.0659,-0.15052 0.15804,-0.26529 0.27658,-0.34431 0.12041,-0.079 0.25776,-0.11853 0.41204,-0.11853 z m 0,0.14393 c -0.18815,0 -0.33678,0.0724 -0.44591,0.21731 -0.10913,0.14299 -0.16369,0.35654 -0.16369,0.64065 0,0.28034 0.0546,0.492 0.16369,0.635 0.11101,0.14299 0.25965,0.21449 0.44591,0.21449 0.19379,0 0.34431,-0.0706 0.45156,-0.21167 0.10724,-0.14299 0.16086,-0.35654 0.16086,-0.64065 0,-0.28598 -0.0546,-0.49953 -0.16369,-0.64064 -0.10724,-0.14299 -0.25682,-0.21449 -0.44873,-0.21449 z m 0.97764,1.82033 z m 0.31326,0 v -1.93322 h 0.9652 l -0.0198,0.14111 h -0.77611 v 0.75354 h 0.66887 v 0.14111 h -0.66887 v 0.89746 z m 1.83372,0 z m 1.40829,0 v -0.94544 h -0.92569 v 0.94544 h -0.16934 v -1.93322 h 0.16934 v 0.84385 h 0.92569 v -0.84385 h 0.16933 v 1.93322 z m 0.48238,0 z m 0.86924,-0.86642 h -0.38664 v 0.86642 h -0.16934 v -1.93322 h 0.46849 c 0.45908,0 0.68863,0.17498 0.68863,0.52494 0,0.13923 -0.0367,0.25023 -0.11007,0.33302 -0.0734,0.0828 -0.18062,0.14205 -0.32173,0.1778 l 0.53057,0.89746 h -0.20037 z m -0.0649,-0.13829 c 0.32362,0 0.48543,-0.13452 0.48543,-0.40357 0,-0.13171 -0.0404,-0.2286 -0.12136,-0.29069 -0.0809,-0.064 -0.21167,-0.096 -0.39229,-0.096 h -0.29351 v 0.79022 z"
       style="fill:#415368;fill-opacity:1;fill-rule:nonzero;stroke:none;stroke-width:0.352778"
       id="path395" />
    <path
       d="m 145.53769,186.38469 z m 5.5439,0 v -3.74121 h -2.82751 v 3.74121 h -1.81505 v -8.54428 h 1.81505 v 3.37079 h 2.82751 v -3.37079 h 1.81504 v 8.54428 z m 5.74078,0 z m 3.64243,-3.3461 h -0.92604 v 3.3461 h -1.81504 v -8.54428 h 2.667 c 1.14418,0 2.00437,0.21402 2.58057,0.64206 0.5762,0.4198 0.8643,1.05774 0.8643,1.91382 0,0.55974 -0.13993,1.0207 -0.4198,1.38288 -0.27164,0.36219 -0.69556,0.67087 -1.27176,0.92605 l 2.21015,3.67947 h -2.06199 z m -0.92604,-1.28411 h 0.95074 c 0.48565,0 0.85195,-0.10701 1.0989,-0.32103 0.24694,-0.22225 0.37042,-0.56797 0.37042,-1.03716 0,-0.43627 -0.13171,-0.75319 -0.39512,-0.95074 -0.25517,-0.20579 -0.65851,-0.30868 -1.21002,-0.30868 h -0.81492 z m 7.7966,4.63021 z m 7.09965,-8.54428 -2.4571,8.54428 h -2.21015 l -2.54353,-8.54428 h 1.93852 l 1.74095,7.03792 1.67923,-7.03792 z"
       style="fill:#415368;fill-opacity:1;fill-rule:nonzero;stroke:none;stroke-width:0.352778"
       id="path427" />
    <path
       d="m 124.7238,188.32498 0.49025,-0.19917 -0.13406,-0.33 h -0.35619 z m 2.29305,5.64444 -0.49025,0.19917 0.57987,1.42737 0.41955,-1.48243 z m 2.76194,-11.71948 0.40516,2.27977 -1.03043,-0.053 z m 2.89321,23.16764 -0.35558,-2.53761 1.03076,0.0519 z m 7.04485,-27.14677 0.50352,-0.16275 -0.53931,-1.6685 -0.4737,1.6883 z m 5.64445,17.4625 -0.50352,0.16276 0.11844,0.36641 h 0.38508 z m -23.45972,-6.87916 h 2.82222 v -1.05834 h -2.82222 z m 2.33196,-0.33 2.29306,5.64444 0.98051,-0.39833 -2.29306,-5.64445 z m 3.29248,5.58938 2.65793,-9.58382 -1.03043,-0.053 -2.64583,9.34861 z m 1.6275,-9.63682 3.1629,18.40325 1.03076,0.0519 -3.16323,-18.40215 z m 4.19366,18.45516 6.87916,-24.51811 -1.01898,-0.2859 -6.89094,24.75211 z m 5.86616,-24.4983 5.64444,17.4625 1.00703,-0.32551 -5.64444,-17.4625 z m 6.14796,17.82891 h 29.45694 v -1.05833 H 145.3613 Z"
       style="fill:#43aa60;fill-opacity:1;fill-rule:nonzero;stroke:none;stroke-width:0.352778"
       id="path457"
       sodipodi:nodetypes="ccccccccccccccccccccccccccccccccccccccccccccccccccccccccccccccc" />
    <path
       d="m 145.89046,192.73469 z m 2.58234,-3.85234 c 0.32926,0 0.58561,0.10113 0.76905,0.30339 0.18345,0.19756 0.27517,0.47273 0.27517,0.8255 v 2.72345 h -1.00189 v -2.55411 c 0,-0.20226 -0.0353,-0.34337 -0.10583,-0.42334 -0.0659,-0.0847 -0.16698,-0.127 -0.30339,-0.127 -0.14111,0 -0.27046,0.0447 -0.38806,0.13406 -0.11289,0.0847 -0.22342,0.21402 -0.33161,0.38805 v 2.58234 h -1.00189 v -3.73945 h 0.86784 l 0.0776,0.47273 c 0.15522,-0.19286 0.32455,-0.33867 0.508,-0.43745 0.18815,-0.0988 0.39981,-0.14817 0.635,-0.14817 z m 2.13855,3.85234 z m 3.35139,-1.03717 c 0,0.14582 0.0212,0.254 0.0635,0.32456 0.0423,0.0659 0.11288,0.11524 0.21166,0.14816 l -0.21166,0.66323 c -0.22108,-0.0188 -0.40217,-0.0706 -0.54328,-0.15523 -0.13641,-0.0847 -0.24224,-0.21637 -0.3175,-0.39511 -0.24459,0.3763 -0.61854,0.56445 -1.12184,0.56445 -0.37159,0 -0.66792,-0.10584 -0.889,-0.3175 -0.21637,-0.21637 -0.32455,-0.49624 -0.32455,-0.83961 0,-0.40923 0.14817,-0.72202 0.4445,-0.93839 0.29633,-0.21637 0.72202,-0.32456 1.27705,-0.32456 h 0.43039 v -0.18344 c 0,-0.23049 -0.0517,-0.39041 -0.15522,-0.47978 -0.10348,-0.0894 -0.27517,-0.13406 -0.51505,-0.13406 -0.26341,0 -0.59267,0.0658 -0.98778,0.19756 l -0.22578,-0.67028 c 0.46567,-0.18344 0.92663,-0.27517 1.38289,-0.27517 0.508,0 0.88194,0.11054 1.12183,0.33162 0.23989,0.21637 0.35984,0.54092 0.35984,0.97366 z m -1.64395,0.43039 c 0.28222,0 0.5033,-0.13876 0.66322,-0.41628 v -0.71261 h -0.33161 c -0.54092,0 -0.81139,0.20226 -0.81139,0.60678 0,0.16463 0.04,0.29398 0.11995,0.38805 0.0847,0.0894 0.20461,0.13406 0.35983,0.13406 z m 2.71716,0.60678 z m 1.42522,0.11289 c -0.30574,0 -0.54327,-0.087 -0.71261,-0.26106 -0.16933,-0.17874 -0.254,-0.43039 -0.254,-0.75494 v -4.32506 l 1.00189,-0.11289 v 4.40972 c 0,0.16463 0.0682,0.24695 0.20461,0.24695 0.0753,0 0.14111,-0.0141 0.19756,-0.0423 l 0.20461,0.71261 c -0.19285,0.0847 -0.40687,0.127 -0.64206,0.127 z m 1.22861,-0.11289 z m 2.42005,0.007 c -0.15051,0.47508 -0.38805,0.84197 -0.71261,1.10067 -0.31985,0.2587 -0.75494,0.40687 -1.30527,0.4445 l -0.10584,-0.71967 c 0.35748,-0.047 0.61854,-0.1317 0.78317,-0.254 0.16933,-0.12229 0.30809,-0.31514 0.41628,-0.57855 h -0.34573 l -1.16416,-3.73945 h 1.06539 l 0.74788,3.09034 0.79023,-3.09034 h 1.03716 z m 1.82541,-0.007 z m 2.7305,-0.17639 c -0.13641,0.0941 -0.29163,0.16463 -0.46567,0.21167 -0.16933,0.0517 -0.33866,0.0776 -0.508,0.0776 -0.3857,-0.005 -0.67733,-0.11525 -0.87489,-0.33161 -0.19755,-0.21638 -0.29633,-0.53388 -0.29633,-0.9525 v -1.86267 h -0.55739 v -0.70556 h 0.55739 v -0.81844 l 1.00189,-0.11995 v 0.93839 h 0.86078 l -0.0988,0.70556 h -0.762 v 1.8415 c 0,0.17874 0.0306,0.30809 0.0917,0.38805 0.0611,0.08 0.15522,0.11995 0.28222,0.11995 0.127,0 0.26811,-0.0423 0.42333,-0.127 z m 0.58478,0.17639 z m 1.49578,-3.73945 v 3.73945 h -1.00189 v -3.73945 z m -0.508,-1.92616 c 0.17874,0 0.32456,0.0564 0.43744,0.16933 0.1176,0.10818 0.17639,0.24694 0.17639,0.41628 0,0.16933 -0.0588,0.31044 -0.17639,0.42333 -0.11288,0.10819 -0.2587,0.16228 -0.43744,0.16228 -0.17874,0 -0.32456,-0.0541 -0.43744,-0.16228 -0.11289,-0.11289 -0.16934,-0.254 -0.16934,-0.42333 0,-0.16934 0.0564,-0.3081 0.16934,-0.41628 0.11288,-0.11289 0.2587,-0.16933 0.43744,-0.16933 z m 1.63849,5.66561 z m 2.05316,-3.85234 c 0.2493,0 0.47273,0.0376 0.67028,0.11289 0.20226,0.0706 0.39276,0.18345 0.5715,0.33867 l -0.43744,0.59267 c -0.1223,-0.0941 -0.24224,-0.16228 -0.35984,-0.20461 -0.11289,-0.0423 -0.23753,-0.0635 -0.37394,-0.0635 -0.53152,0 -0.79728,0.40922 -0.79728,1.22766 0,0.41393 0.0682,0.71026 0.20461,0.889 0.13641,0.17874 0.33162,0.26811 0.58561,0.26811 0.13171,0 0.25165,-0.0188 0.35984,-0.0564 0.10818,-0.0423 0.23518,-0.11054 0.381,-0.20461 l 0.43744,0.62794 c -0.35748,0.29163 -0.7667,0.43745 -1.22767,0.43745 -0.36689,0 -0.68674,-0.08 -0.95955,-0.23989 -0.26811,-0.15993 -0.47507,-0.38571 -0.62089,-0.67734 -0.14581,-0.29633 -0.21872,-0.64205 -0.21872,-1.03716 0,-0.39511 0.0729,-0.74319 0.21872,-1.04422 0.14582,-0.30575 0.35278,-0.54328 0.62089,-0.71262 0.27281,-0.16933 0.58796,-0.254 0.94544,-0.254 z m 1.95114,3.85234 z m 1.73567,-3.85234 c 0.52681,0 0.97837,0.15052 1.35466,0.45156 l -0.381,0.5715 c -0.31514,-0.19756 -0.62559,-0.29633 -0.93133,-0.29633 -0.16463,0 -0.29163,0.0306 -0.381,0.0917 -0.0894,0.0611 -0.13406,0.14346 -0.13406,0.24694 0,0.0753 0.0188,0.13876 0.0564,0.1905 0.0423,0.0517 0.1176,0.10113 0.22578,0.14817 0.11289,0.047 0.27987,0.10348 0.50095,0.16933 0.39511,0.10819 0.68909,0.254 0.88194,0.43745 0.19286,0.17874 0.28928,0.42568 0.28928,0.74083 0,0.2493 -0.0729,0.46567 -0.21872,0.64911 -0.14111,0.18345 -0.33396,0.32456 -0.57856,0.42334 -0.24459,0.0941 -0.5174,0.14111 -0.81844,0.14111 -0.31515,0 -0.60208,-0.047 -0.86078,-0.14111 -0.2587,-0.0988 -0.47978,-0.23284 -0.66322,-0.40217 l 0.49389,-0.55033 c 0.31515,0.24459 0.64911,0.36688 1.00189,0.36688 0.18814,0 0.33631,-0.0353 0.4445,-0.10583 0.11288,-0.0753 0.16933,-0.17639 0.16933,-0.30339 0,-0.0988 -0.0212,-0.17639 -0.0635,-0.23283 -0.0423,-0.0565 -0.11995,-0.10819 -0.23283,-0.15522 -0.11289,-0.0517 -0.28928,-0.11054 -0.52917,-0.17639 -0.3763,-0.10348 -0.65617,-0.2493 -0.83961,-0.43745 -0.17874,-0.19285 -0.26811,-0.43039 -0.26811,-0.71261 0,-0.21166 0.0611,-0.40216 0.18344,-0.5715 0.1223,-0.16933 0.29398,-0.30104 0.51506,-0.39511 0.22578,-0.0988 0.48683,-0.14817 0.78316,-0.14817 z"
       style="fill:#43aa60;fill-opacity:1;fill-rule:nonzero;stroke:none;stroke-width:0.352778"
       id="path469" />
  </g>
</svg>
