<?xml version="1.0" encoding="UTF-8" standalone="no"?>
<!-- Created with Inkscape (http://www.inkscape.org/) -->

<svg
   width="24"
   height="19.829067"
   viewBox="0 0 6.3499998 5.2464407"
   version="1.1"
   id="svg5"
   inkscape:version="1.1 (c68e22c387, 2021-05-23)"
   sodipodi:docname="open_filled.svg"
   xmlns:inkscape="http://www.inkscape.org/namespaces/inkscape"
   xmlns:sodipodi="http://sodipodi.sourceforge.net/DTD/sodipodi-0.dtd"
   xmlns="http://www.w3.org/2000/svg"
   xmlns:svg="http://www.w3.org/2000/svg">
  <sodipodi:namedview
     id="namedview7"
     pagecolor="#ffffff"
     bordercolor="#666666"
     borderopacity="1.0"
     inkscape:pageshadow="2"
     inkscape:pageopacity="0.0"
     inkscape:pagecheckerboard="0"
     inkscape:document-units="px"
     showgrid="false"
     showguides="false"
     inkscape:guide-bbox="true"
     inkscape:snap-bbox="true"
     inkscape:bbox-paths="true"
     inkscape:bbox-nodes="true"
     inkscape:snap-bbox-edge-midpoints="true"
     inkscape:snap-bbox-midpoints="true"
     inkscape:object-paths="true"
     inkscape:snap-intersection-paths="true"
     inkscape:snap-smooth-nodes="true"
     inkscape:snap-midpoints="true"
     inkscape:snap-global="false"
     inkscape:zoom="2.4088454"
     inkscape:cx="-92.367904"
     inkscape:cy="-26.361177"
     inkscape:window-width="1366"
     inkscape:window-height="704"
     inkscape:window-x="0"
     inkscape:window-y="27"
     inkscape:window-maximized="1"
     inkscape:current-layer="layer1"
     units="px">
    <sodipodi:guide
       position="2.2037695,-77.042223"
       orientation="1,0"
       id="guide928" />
    <sodipodi:guide
       position="-22.796231,-36.850409"
       orientation="1,0"
       id="guide1054" />
    <sodipodi:guide
       position="27.203769,-36.850399"
       orientation="1,0"
       id="guide1056" />
    <sodipodi:guide
       position="-47.796228,-27.042219"
       orientation="0,-1"
       id="guide1138" />
    <sodipodi:guide
       position="-22.79623,-2.0422186"
       orientation="0,-1"
       id="guide1164" />
    <sodipodi:guide
       position="-22.79623,-52.042218"
       orientation="0,-1"
       id="guide1246" />
    <sodipodi:guide
       position="2.2037695,-39.542218"
       orientation="0,-1"
       id="guide1352" />
    <sodipodi:guide
       position="14.70377,-14.542219"
       orientation="0,-1"
       id="guide1434" />
    <sodipodi:guide
       position="-35.296229,-39.542218"
       orientation="1,0"
       id="guide1540" />
    <sodipodi:guide
       position="39.703769,-14.542219"
       orientation="1,0"
       id="guide1622" />
    <sodipodi:guide
       position="14.70377,-14.542219"
       orientation="1,0"
       id="guide1624" />
    <sodipodi:guide
       position="-10.29623,-14.542219"
       orientation="1,0"
       id="guide1626" />
    <sodipodi:guide
       position="8.4537695,-14.542209"
       orientation="1,0"
       id="guide1767" />
    <sodipodi:guide
       position="20.95377,-20.792229"
       orientation="1,0"
       id="guide2041" />
    <sodipodi:guide
       position="5.3287695,-8.2922086"
       orientation="1,0"
       id="guide2439" />
  </sodipodi:namedview>
  <defs
     id="defs2" />
  <g
     inkscape:label="Capa 1"
     inkscape:groupmode="layer"
     id="layer1"
     transform="translate(13.716333,-134.52304)">
    <g
       style="fill:#ffffff"
       id="g36"
       transform="matrix(0.40357232,0,0,0.40357232,-13.770164,133.7159)">
      <path
         d="M 1,3.5 A 1.5,1.5 0 0 1 2.5,2 H 5.264 C 6.222,2 7.024,2.56 7.575,3.184 7.985,3.648 8.48,4 9,4 h 4.5 A 1.5,1.5 0 0 1 15,5.5 v 0.64 c 0.57,0.265 0.94,0.876 0.856,1.546 l -0.64,5.124 A 2.5,2.5 0 0 1 12.733,15 H 3.266 A 2.5,2.5 0 0 1 0.785,12.81 L 0.145,7.686 A 1.5,1.5 0 0 1 1,6.14 Z M 2,6 H 14 V 5.5 A 0.5,0.5 0 0 0 13.5,5 H 9 C 8.036,5 7.29,4.371 6.826,3.846 6.374,3.334 5.82,3 5.264,3 H 2.5 A 0.5,0.5 0 0 0 2,3.5 Z M 1.633,7 A 0.5,0.5 0 0 0 1.137,7.562 l 0.64,5.124 A 1.5,1.5 0 0 0 3.266,14 h 9.468 a 1.5,1.5 0 0 0 1.489,-1.314 l 0.64,-5.124 A 0.5,0.5 0 0 0 14.367,7 Z"
         id="path27"
         style="fill:#ffffff" />
    </g>
  </g>
</svg>
